<svg width="80" height="80" viewBox="0 0 80 80" fill="none" xmlns="http://www.w3.org/2000/svg">
<path d="M59.0865 43.4L46.6665 53.3333H29.9998V50H43.5498C43.8513 49.9998 44.1471 49.9179 44.4057 49.763C44.6643 49.608 44.876 49.3858 45.0183 49.12C45.1606 48.8542 45.2281 48.5548 45.2137 48.2537C45.1993 47.9526 45.1035 47.661 44.9365 47.41L41.9765 42.97C41.3693 42.056 40.5453 41.3065 39.5781 40.7883C38.6109 40.2701 37.5305 39.9993 36.4332 40H9.99984C9.11578 40 8.26794 40.3512 7.64281 40.9763C7.01769 41.6014 6.6665 42.4493 6.6665 43.3333V63.3333C6.6665 65.1014 7.36888 66.7971 8.61913 68.0474C9.86937 69.2976 11.5651 70 13.3332 70H45.4632C46.8885 70.0003 48.2975 69.6959 49.5956 69.1073C50.8937 68.5186 52.051 67.6592 52.9898 66.5867L73.3332 43.3333L68.4932 41.72C66.9097 41.1922 65.2192 41.0694 63.576 41.3628C61.9329 41.6563 60.3894 42.3567 59.0865 43.4ZM64.1932 24.6333C65.6965 23.0833 66.6265 20.94 66.6265 18.5733C66.6265 16.2067 65.6965 14.0633 64.1932 12.5133C63.4329 11.7199 62.5202 11.0883 61.5097 10.6564C60.4993 10.2245 59.412 10.0013 58.3132 10C58.3132 10 54.1665 9.99 49.9998 14.2867C45.8332 9.99 41.6865 10 41.6865 10C40.588 10.0014 39.501 10.2244 38.4907 10.6557C37.4803 11.087 36.5674 11.7177 35.8065 12.51C34.3032 14.0633 33.3732 16.2033 33.3732 18.57C33.3732 20.9367 34.3032 23.0833 35.8065 24.63L49.9998 40L64.1932 24.6333Z" fill="#B0CDCE"/>
</svg>
