<svg width="80" height="80" viewBox="0 0 80 80" xmlns="http://www.w3.org/2000/svg">
<path d="M56.6668 70V36.75C56.6668 35.6389 56.4302 34.6111 55.9568 33.6667C55.4835 32.7222 54.8035 31.9444 53.9168 31.3333L33.3335 16.5C33.3335 14.7222 33.9868 13.1944 35.2935 11.9167C36.6002 10.6389 38.1691 10 40.0002 10H70.0002C71.8335 10 73.4035 10.6533 74.7102 11.96C76.0168 13.2667 76.6691 14.8356 76.6668 16.6667V63.3333C76.6668 65.1667 76.0135 66.7367 74.7068 68.0433C73.4002 69.35 71.8313 70.0022 70.0002 70H56.6668ZM56.6668 56.6667H63.3335V50H56.6668V56.6667ZM56.6668 43.3333H63.3335V36.6667H56.6668V43.3333ZM56.6668 30H63.3335V23.3333H56.6668V30ZM3.33351 66.6667V40.0833C3.33351 38.9722 3.58351 37.9444 4.08351 37C4.58351 36.0556 5.27795 35.2778 6.16684 34.6667L22.8335 22.75C24.0002 21.9167 25.278 21.5 26.6668 21.5C28.0557 21.5 29.3335 21.9167 30.5002 22.75L47.1668 34.6667C48.0557 35.2778 48.7502 36.0556 49.2502 37C49.7502 37.9444 50.0002 38.9722 50.0002 40.0833V66.6667C50.0002 67.6111 49.6802 68.4033 49.0402 69.0433C48.4002 69.6833 47.6091 70.0022 46.6668 70H33.3335V50H20.0002V70H6.66684C5.7224 70 4.93017 69.68 4.29017 69.04C3.65017 68.4 3.33129 67.6089 3.33351 66.6667Z"/>
</svg>
