<svg xmlns="http://www.w3.org/2000/svg" viewBox="0 0 52 52"><path d="M25.29,21.07a10.77,10.77,0,0,0-9.12,4.81V21.07a5.38,5.38,0,0,0-5.38-5.38,1.79,1.79,0,0,0,0,3.58,1.82,1.82,0,0,1,1.8,1.8V35.41A3.58,3.58,0,0,0,16.17,39H26a.9.9,0,0,0,.9-.9v-.9a1.79,1.79,0,0,0-1.79-1.79h-1.8L30.52,30V38.1a.9.9,0,0,0,.9.9h1.79a.9.9,0,0,0,.9-.9V26.55a6.73,6.73,0,0,1-1.79.25,7.18,7.18,0,0,1-7-5.74Zm8.82-5.38H30.52L26.93,12.1v7.53a5.39,5.39,0,0,0,10.77,0V12.1Zm-4,4.48a.9.9,0,1,1,.9-.9h0a.9.9,0,0,1-.9.9Zm4.49,0a.9.9,0,1,1,.9-.9h0a.9.9,0,0,1-.9.9Z"/><path d="M26,0A26,26,0,1,0,52,26,26,26,0,0,0,26,0ZM3,26A23,23,0,0,1,41.12,8.69L8.69,41.12A22.87,22.87,0,0,1,3,26ZM26,49a22.91,22.91,0,0,1-15.19-5.75L43.25,10.81A23,23,0,0,1,26,49Z" style="fill:#bf0000"/></svg>