<svg xmlns="http://www.w3.org/2000/svg" viewBox="0 0 52 52"><path d="M26.89,6.1a18.79,18.79,0,0,0,.78,2.05c.4.72,1.28.52,2,.76,1.26.4,1.19.89,2.74.95a26,26,0,0,1,3,.18c1.13.22,1.38,1.12.86,2.05a5.8,5.8,0,0,1-3,2.17c-1.06.3-2.7.11-2.68,1.59s1.06,2.89,1.25,4.45a14.55,14.55,0,0,1-1.16,7.19c-.73,1.89-1.61,12.27.07,13.32a2,2,0,0,1,.68.58,1.57,1.57,0,0,1,.17.7c0,.16,0,.19-.71.2s-2,0-2.7-.07-.77-.24-.89-.92c-.41-2.41-.7-4.86-1.12-7.28-.14-.83-.15-.79-.46-.53s-2,1-2.13,1.17-.05.5-.1.88c-.25,1.67-2.9,3.66-3.24,4.6-.22.63,4-.62,3.83,1.86,0,.24,0,.33-1.69.38s-4.91,0-6.72-.09-2.15-.43-2.47-.93c-1.64-2.6-1.53-7.47-1-10.34.73-4,4.14-6.74,6.82-9.53,4.41-4.58,4.47-6.24,5.56-12.17.2-1.05.94-6.69,2.29-3.22Z" style="fill-rule:evenodd"/><path d="M26,0A26,26,0,1,0,52,26,26,26,0,0,0,26,0ZM3,26A23,23,0,0,1,41.12,8.69L8.69,41.12A22.87,22.87,0,0,1,3,26ZM26,49a22.91,22.91,0,0,1-15.19-5.75L43.25,10.81A23,23,0,0,1,26,49Z" style="fill:#bf0000"/></svg>