<svg width="80" height="80" viewBox="0 0 80 80" fill="none" xmlns="http://www.w3.org/2000/svg">
<path d="M42.0938 0.453125C41.4376 0.15625 40.7344 0 40.0001 0C39.2657 0 38.5626 0.15625 37.9063 0.453125L8.48445 12.9375C5.04695 14.3906 2.48445 17.7813 2.50007 21.875C2.5782 37.375 8.9532 65.7344 35.8751 78.625C38.4844 79.875 41.5157 79.875 44.1251 78.625C71.0469 65.7344 77.4219 37.375 77.5001 21.875C77.5157 17.7813 74.9532 14.3906 71.5157 12.9375L42.0938 0.453125ZM25.1407 44.7188C25.8907 44.9063 26.6876 45 27.5001 45C33.0157 45 37.5001 40.5156 37.5001 35V25H44.4063C46.2969 25 48.0313 26.0625 48.8751 27.7656L50.0001 30H60.0001C61.3751 30 62.5001 31.125 62.5001 32.5V37.5C62.5001 44.4063 56.9063 50 50.0001 50H42.5001V57.9219C42.5001 59.0625 41.5782 60 40.4219 60C40.1407 60 39.8594 59.9375 39.6094 59.8281L24.1876 53.2188C23.1563 52.7813 22.5001 51.7656 22.5001 50.6563C22.5001 50.2188 22.5938 49.7969 22.7969 49.4063L25.1407 44.7188ZM25.0001 25H32.5001V35C32.5001 37.7656 30.2657 40 27.5001 40C24.7344 40 22.5001 37.7656 22.5001 35V27.5C22.5001 26.125 23.6251 25 25.0001 25ZM45.0001 32.5C45.0001 31.837 44.7367 31.2011 44.2678 30.7322C43.799 30.2634 43.1631 30 42.5001 30C41.837 30 41.2011 30.2634 40.7323 30.7322C40.2635 31.2011 40.0001 31.837 40.0001 32.5C40.0001 33.163 40.2635 33.7989 40.7323 34.2678C41.2011 34.7366 41.837 35 42.5001 35C43.1631 35 43.799 34.7366 44.2678 34.2678C44.7367 33.7989 45.0001 33.163 45.0001 32.5Z" fill="#B0CDCE"/>
</svg>
